# xmcd
#
# Track frame offsets:
#	150
#	13344
#	22513
#	41850
#	54951
#	73489
#	87879
#	101306
#	115880
#	137695
#	170332
#	185593
#	202839
#	227104
#	244881
#	260031
#	271061
#	285844
#	309688
#	322690
#
# Disc length: 4440 seconds
#
# Revision: 1
# Processed by: cddbd v1.5.2PL0 Copyright (c) Steve Scherf et al.
# Submitted via: EasyCDDAExtractor 10.0.3.1
#
DISCID=0e115614
DTITLE=Various Artist - Vol 1
DYEAR=1998
DGENRE=Polski Rock
TTITLE0=KASIA SOBCZYK I CZERWONO-CZARNI - Trzynastego
TTITLE1=CZESŁAW NIEMEN - Czy mnie jeszcze pamiêtasz
TTITLE2=ALIBABKI - Kwiat jednej nocy
TTITLE3=SKALDOWIE - Medytacje wiejskiego listonosza
TTITLE4=MARYLA RODOWICZ - Jada wozy kolorowe
TTITLE5=CZERWONE GITARY - Bia³y krzyz
TTITLE6=HALINA FRĄCKOWIAK and ABC - Napisz proszê
TTITLE7=PIOTR SZCZEPANIK - Zó³te kalendarze
TTITLE8=IRENA SANTOR - Embarras
TTITLE9=MAREK GRECHUTA - Korowód II
TTITLE10=HALINA KUNICKA - Orkiestry dête
TTITLE11=JERZY POŁOMSKI I ALIBABKI - Bo z dziewczynami
TTITLE12=ŁUCJA PRUS I SKALDOWIE - W zó³tych p³omieniach lisci
TTITLE13=ANDRZEJ DĄBROWSKI I PARTITA - Do zakochania jeden krok
TTITLE14=PIOTR JANCZERSKI I NO TO CO - Po ten kwiat czerwony
TTITLE15=JONASZ KOFTA - Pamiêtajcie o ogrodach
TTITLE16=ANNA JANTAR I ALIBABKI - Najtrudniejszy pierwszy krok
TTITLE17=TADEUSZ WOŹNIAK I ALIBABKI - Zegarmistrz swiat³a
TTITLE18=IRENA JAROCKA I ALIBABKI - Motylem jestem
TTITLE19=POD BUDĄ - Bardzo smutna piosenka retro
EXTD=YEAR: 1998
EXTT0=
EXTT1=
EXTT2=
EXTT3=
EXTT4=
EXTT5=
EXTT6=
EXTT7=
EXTT8=
EXTT9=
EXTT10=
EXTT11=
EXTT12=
EXTT13=
EXTT14=
EXTT15=
EXTT16=
EXTT17=
EXTT18=
EXTT19=
PLAYORDER=
